<?xml version="1.0" encoding="UTF-8"?>
<svg id="Calque_1" xmlns="http://www.w3.org/2000/svg" version="1.1" viewBox="0 0 283.46 283.46">
  <!-- Generator: Adobe Illustrator 29.3.1, SVG Export Plug-In . SVG Version: 2.1.0 Build 151)  -->
  <defs>
    <style>
      .st0 {
        fill: #121212;
      }
    </style>
  </defs>
  <g>
    <g>
      <path class="st0" d="M51.5,93.47c-3.17-4.23-8.11-6.35-14.75-6.35h-15.87v19.57h10.46v-11.23h4.7c3.17,0,5.47,1,6.94,3.06,1.47,2,2.17,4.94,2.17,8.7v8.99c0,3.82-.71,6.76-2.17,8.82-1.47,2-3.76,3-6.94,3h-15.17v8.35h15.87c6.64,0,11.58-2.12,14.75-6.35,3.17-4.23,4.82-10.35,4.82-18.28s-1.65-14.05-4.82-18.28Z"/>
      <path class="st0" d="M102.68,87.12v8.7h38.97v-8.7h-38.97ZM116.91,136.38h10.58v-23.75h-10.58v23.75Z"/>
      <path class="st0" d="M182.09,124.5h-11.17l3.12,11.87h11.29l-3.23-11.87ZM171.98,87.12h-14.99l-7.76,28.86h9.87l4.82-18.63h.59l4.76,18.63h10.52l-7.82-28.86ZM143.71,136.38h10.7l3.06-11.87h-10.58l-3.17,11.87Z"/>
      <path class="st0" d="M77.58,196.34c-6.58,0-11.46-2.22-14.64-6.67-3.17-4.44-4.76-10.71-4.76-18.8s1.59-14.35,4.76-18.8c3.17-4.44,8.05-6.66,14.64-6.66,2.54,0,4.78.34,6.74,1.02,1.95.68,3.63,1.64,5.04,2.86,1.41,1.22,2.57,2.7,3.49,4.44.92,1.74,1.63,3.69,2.15,5.85l-9.87,2.4c-.28-1.17-.61-2.26-.99-3.24-.38-.99-.86-1.83-1.45-2.54-.59-.71-1.32-1.26-2.19-1.66s-1.92-.6-3.14-.6c-2.87,0-4.9,1.12-6.1,3.35-1.2,2.23-1.8,5.33-1.8,9.28v8.6c0,3.95.6,7.04,1.8,9.28,1.2,2.23,3.23,3.35,6.1,3.35,2.45,0,4.22-.75,5.33-2.26s1.91-3.43,2.43-5.78l9.87,2.4c-.52,2.16-1.23,4.12-2.15,5.85-.92,1.74-2.08,3.23-3.49,4.48-1.41,1.25-3.09,2.2-5.04,2.86-1.95.66-4.2.99-6.74.99Z"/>
      <path class="st0" d="M104.1,195.5v-49.23h10.65v40.56h21.16v8.68h-31.81Z"/>
      <path class="st0" d="M170.61,195.5l-3.11-11.85h-13.47l-3.03,11.85h-10.72l13.33-49.23h14.95l13.33,49.23h-11.29ZM161.09,156.49h-.57l-4.8,18.62h10.16l-4.8-18.62Z"/>
      <path class="st0" d="M202.64,196.34c-4.14,0-7.73-.68-10.79-2.03s-5.52-3.19-7.4-5.52l6.14-6.76c1.79,1.97,3.75,3.43,5.89,4.37,2.14.94,4.31,1.41,6.52,1.41,2.54,0,4.47-.57,5.79-1.71,1.31-1.14,1.97-2.77,1.97-4.91,0-1.75-.51-3.08-1.52-3.98-1.01-.9-2.72-1.54-5.11-1.92l-5.15-.85c-4.42-.75-7.62-2.39-9.59-4.9-1.97-2.51-2.96-5.58-2.96-9.19,0-4.74,1.55-8.42,4.66-11.03,3.1-2.61,7.45-3.91,13.05-3.91,3.81,0,7.12.58,9.94,1.75,2.82,1.17,5.1,2.75,6.84,4.76l-6,6.68c-1.32-1.46-2.87-2.6-4.66-3.42-1.79-.82-3.81-1.23-6.07-1.23-4.75,0-7.12,1.97-7.12,5.91,0,1.71.53,2.99,1.59,3.84,1.06.86,2.79,1.5,5.18,1.92l5.15.92c4,.71,7.08,2.21,9.24,4.51,2.16,2.3,3.24,5.4,3.24,9.3,0,2.3-.4,4.43-1.2,6.37-.8,1.95-2,3.64-3.6,5.07-1.6,1.43-3.56,2.55-5.89,3.35-2.33.8-5.04,1.2-8.15,1.2Z"/>
      <path class="st0" d="M251.94,174.9h-12.41v20.6h-10.65v-49.23h10.65v19.96h12.41v-19.96h10.65v49.23h-10.65v-20.6Z"/>
    </g>
    <polygon class="st0" points="62.24 124.5 72.76 124.5 69.77 136.38 59.01 136.38 62.24 124.5"/>
    <polygon class="st0" points="86.28 124.5 97.39 124.5 100.63 136.38 89.34 136.38 86.28 124.5"/>
  </g>
  <path class="st0" d="M163.93,97.38"/>
  <line class="st0" x1="183.68" y1="130.21" x2="182.56" y2="126.21"/>
  <polygon class="st0" points="72.35 87.12 87.34 87.12 95.1 115.98 84.64 115.98 79.82 97.35 79.29 97.35 74.47 115.98 64.54 115.98 72.35 87.12"/>
</svg>